<svg xmlns="http://www.w3.org/2000/svg" width="231" height="57" viewBox="0 0 231 57" fill="none"><path d="M1.71643 0.302339C1.33112 -0.0933332 0.698012 -0.101736 0.302339 0.283572C-0.0933332 0.668879 -0.101736 1.30199 0.283572 1.69766L1.71643 0.302339ZM210.869 35.4377C211.351 35.1685 211.524 34.5594 211.254 34.0771C210.985 33.5949 210.376 33.4222 209.894 33.6914L210.869 35.4377ZM2.01605 3.44243C2.40888 3.83063 3.04204 3.82687 3.43023 3.43403C3.81843 3.04119 3.81467 2.40804 3.42183 2.01984L2.01605 3.44243ZM6.98388 5.41587C6.57767 5.04168 5.94504 5.06764 5.57085 5.47384C5.19667 5.88005 5.22262 6.51268 5.62883 6.88687L6.98388 5.41587ZM9.34936 10.2062C9.76709 10.5675 10.3986 10.5217 10.7599 10.104C11.1211 9.68627 11.0754 9.05476 10.6576 8.69349L9.34936 10.2062ZM14.4285 11.8596C14.0005 11.5106 13.3706 11.5746 13.0215 12.0025C12.6725 12.4305 12.7364 13.0604 13.1644 13.4095L14.4285 11.8596ZM17.0659 16.5036C17.5033 16.8409 18.1312 16.7599 18.4685 16.3225C18.8058 15.8852 18.7248 15.2573 18.2875 14.92L17.0659 16.5036ZM22.2286 17.8785C21.7826 17.5526 21.157 17.65 20.8312 18.0959C20.5054 18.5419 20.6027 19.1675 21.0487 19.4933L22.2286 17.8785ZM25.1086 22.3816C25.5626 22.6961 26.1856 22.583 26.5001 22.129C26.8146 21.675 26.7014 21.052 26.2474 20.7375L25.1086 22.3816ZM30.3405 23.4983C29.8789 23.1951 29.2589 23.3236 28.9557 23.7852C28.6526 24.2469 28.781 24.8669 29.2427 25.17L30.3405 23.4983ZM33.4419 27.855C33.9108 28.1468 34.5275 28.0033 34.8193 27.5344C35.1111 27.0655 34.9676 26.4488 34.4987 26.157L33.4419 27.855ZM38.7033 28.704C38.2275 28.4236 37.6145 28.582 37.334 29.0577C37.0536 29.5335 37.2119 30.1466 37.6877 30.427L38.7033 28.704ZM42.0015 32.9001C42.4839 33.169 43.0929 32.996 43.3618 32.5136C43.6307 32.0312 43.4576 31.4221 42.9752 31.1532L42.0015 32.9001ZM47.312 33.5024C46.8233 33.2452 46.2186 33.433 45.9614 33.9217C45.7043 34.4105 45.8921 35.0152 46.3808 35.2723L47.312 33.5024ZM50.8234 37.541C51.3183 37.7862 51.9183 37.5837 52.1634 37.0888C52.4086 36.5939 52.2061 35.994 51.7112 35.7489L50.8234 37.541ZM56.1463 37.8787C55.6455 37.6457 55.0508 37.8628 54.8178 38.3636C54.5849 38.8643 54.8019 39.4591 55.3027 39.6921L56.1463 37.8787ZM59.8368 41.7335C60.3432 41.9539 60.9324 41.7222 61.1529 41.2158C61.3733 40.7094 61.1415 40.1202 60.6352 39.8997L59.8368 41.7335ZM65.1813 41.8114C64.6696 41.6038 64.0864 41.8503 63.8787 42.3621C63.6711 42.8739 63.9176 43.4571 64.4294 43.6647L65.1813 41.8114ZM69.073 45.4801C69.5899 45.6746 70.1666 45.4132 70.3611 44.8963C70.5556 44.3794 70.2942 43.8027 69.7773 43.6082L69.073 45.4801ZM74.4009 45.28C73.8792 45.0989 73.3094 45.3752 73.1284 45.8969C72.9474 46.4187 73.2236 46.9884 73.7454 47.1695L74.4009 45.28ZM78.4703 48.7395C78.9967 48.9067 79.5589 48.6155 79.7261 48.0891C79.8933 47.5628 79.6021 47.0005 79.0758 46.8333L78.4703 48.7395ZM83.7987 48.2641C83.268 48.1112 82.7138 48.4173 82.5608 48.948C82.4079 49.4787 82.714 50.0329 83.2447 50.1859L83.7987 48.2641ZM88.0402 51.498C88.5749 51.6364 89.1205 51.3152 89.259 50.7806C89.3974 50.2459 89.0762 49.7003 88.5416 49.5618L88.0402 51.498ZM93.3236 50.7297C92.7853 50.6062 92.2488 50.9424 92.1252 51.4807C92.0017 52.019 92.3379 52.5555 92.8762 52.679L93.3236 50.7297ZM97.7539 53.7262C98.2955 53.8344 98.8223 53.4831 98.9305 52.9415C99.0388 52.4 98.6875 51.8732 98.1459 51.765L97.7539 53.7262ZM102.981 52.6595C102.437 52.5669 101.92 52.9332 101.828 53.4776C101.735 54.0221 102.101 54.5386 102.646 54.6312L102.981 52.6595ZM107.566 55.3947C108.113 55.4714 108.618 55.0902 108.695 54.5433C108.772 53.9964 108.391 53.4908 107.844 53.4141L107.566 55.3947ZM112.737 54.0265C112.188 53.9661 111.694 54.3622 111.634 54.9112C111.574 55.4601 111.97 55.9541 112.519 56.0145L112.737 54.0265ZM117.47 56.4844C118.021 56.5283 118.503 56.1176 118.547 55.5671C118.59 55.0165 118.18 54.5347 117.629 54.4908L117.47 56.4844ZM122.539 54.8073C121.988 54.7802 121.519 55.2053 121.491 55.757C121.464 56.3086 121.89 56.7777 122.441 56.8049L122.539 54.8073ZM127.433 56.9732C127.985 56.9833 128.441 56.5438 128.451 55.9916C128.461 55.4394 128.021 54.9836 127.469 54.9735L127.433 56.9732ZM132.377 54.9872C131.825 54.9942 131.383 55.4476 131.39 55.9999C131.397 56.5521 131.851 56.9941 132.403 56.987L132.377 54.9872ZM137.387 56.8456C137.939 56.8212 138.366 56.3542 138.342 55.8025C138.318 55.2507 137.851 54.8232 137.299 54.8475L137.387 56.8456ZM142.214 54.5533C141.664 54.595 141.251 55.0752 141.293 55.6259C141.334 56.1766 141.815 56.5893 142.365 56.5476L142.214 54.5533ZM147.319 56.0941C147.868 56.0351 148.265 55.5421 148.206 54.993C148.147 54.4439 147.654 54.0466 147.105 54.1056L147.319 56.0941ZM152.002 53.5008C151.455 53.5772 151.073 54.0825 151.149 54.6295C151.226 55.1764 151.731 55.5579 152.278 55.4816L152.002 53.5008ZM157.19 54.7167C157.734 54.6232 158.099 54.1061 158.006 53.5618C157.912 53.0175 157.395 52.6521 156.851 52.7456L157.19 54.7167ZM161.688 51.8357C161.147 51.9463 160.798 52.4746 160.909 53.0157C161.019 53.5568 161.548 53.9058 162.089 53.7951L161.688 51.8357ZM166.96 52.7194C167.497 52.5919 167.83 52.0529 167.702 51.5156C167.575 50.9782 167.036 50.6459 166.498 50.7734L166.96 52.7194ZM171.257 49.5662C170.723 49.7103 170.408 50.2593 170.552 50.7925C170.696 51.3256 171.245 51.6411 171.778 51.497L171.257 49.5662ZM176.591 50.1164C177.119 49.956 177.418 49.3975 177.257 48.8691C177.097 48.3406 176.538 48.0423 176.01 48.2027L176.591 50.1164ZM180.672 46.71C180.149 46.8863 179.867 47.4535 180.044 47.9769C180.22 48.5003 180.787 48.7817 181.31 48.6054L180.672 46.71ZM186.024 46.9387C186.541 46.7468 186.806 46.1714 186.614 45.6535C186.422 45.1357 185.846 44.8714 185.329 45.0633L186.024 46.9387ZM189.903 43.2915C189.391 43.4985 189.144 44.0813 189.351 44.5934C189.558 45.1054 190.141 45.3527 190.653 45.1457L189.903 43.2915ZM195.251 43.2091C195.757 42.9875 195.987 42.3977 195.766 41.8918C195.544 41.386 194.954 41.1556 194.448 41.3773L195.251 43.2091ZM198.923 39.3407C198.423 39.5765 198.21 40.1725 198.445 40.6719C198.681 41.1713 199.277 41.385 199.777 41.1492L198.923 39.3407ZM204.251 38.9597C204.744 38.7101 204.941 38.1084 204.692 37.6157C204.442 37.123 203.841 36.9259 203.348 37.1755L204.251 38.9597ZM207.709 34.8918C207.223 35.1545 207.043 35.7613 207.305 36.2471C207.568 36.7329 208.175 36.9137 208.661 36.651L207.709 34.8918ZM0.283572 1.69766C0.844347 2.27352 1.42193 2.85533 2.01605 3.44243L3.42183 2.01984C2.83663 1.44155 2.26808 0.868831 1.71643 0.302339L0.283572 1.69766ZM5.62883 6.88687C6.81698 7.98137 8.05769 9.08914 9.34936 10.2062L10.6576 8.69349C9.38147 7.5898 8.15636 6.49594 6.98388 5.41587L5.62883 6.88687ZM13.1644 13.4095C14.4244 14.4372 15.7253 15.4695 17.0659 16.5036L18.2875 14.92C16.9611 13.8969 15.6744 12.8758 14.4285 11.8596L13.1644 13.4095ZM21.0487 19.4933C22.3687 20.4579 23.7224 21.4214 25.1086 22.3816L26.2474 20.7375C24.8751 19.7869 23.5351 18.8331 22.2286 17.8785L21.0487 19.4933ZM29.2427 25.17C30.6143 26.0708 32.0143 26.9664 33.4419 27.855L34.4987 26.157C33.085 25.2771 31.6986 24.3902 30.3405 23.4983L29.2427 25.17ZM37.6877 30.427C39.1014 31.2603 40.5395 32.0853 42.0015 32.9001L42.9752 31.1532C41.5275 30.3462 40.1033 29.5292 38.7033 28.704L37.6877 30.427ZM46.3808 35.2723C47.8403 36.0402 49.3214 36.797 50.8234 37.541L51.7112 35.7489C50.2239 35.0121 48.7573 34.2627 47.312 33.5024L46.3808 35.2723ZM55.3027 39.6921C56.7952 40.3864 58.3068 41.0673 59.8368 41.7335L60.6352 39.8997C59.1205 39.2403 57.624 38.5661 56.1463 37.8787L55.3027 39.6921ZM64.4294 43.6647C65.9603 44.2858 67.5084 44.8914 69.073 45.4801L69.7773 43.6082C68.2288 43.0256 66.6967 42.4262 65.1813 41.8114L64.4294 43.6647ZM73.7454 47.1695C75.3052 47.7107 76.8803 48.2344 78.4703 48.7395L79.0758 46.8333C77.5028 46.3337 75.9444 45.8155 74.4009 45.28L73.7454 47.1695ZM83.2447 50.1859C84.8296 50.6428 86.4283 51.0805 88.0402 51.498L88.5416 49.5618C86.9475 49.149 85.3664 48.7161 83.7987 48.2641L83.2447 50.1859ZM92.8762 52.679C94.4899 53.0494 96.1159 53.3988 97.7539 53.7262L98.1459 51.765C96.5266 51.4413 94.9191 51.0959 93.3236 50.7297L92.8762 52.679ZM102.646 54.6312C104.275 54.9084 105.915 55.1633 107.566 55.3947L107.844 53.4141C106.212 53.1854 104.591 52.9335 102.981 52.6595L102.646 54.6312ZM112.519 56.0145C114.159 56.1951 115.81 56.3521 117.47 56.4844L117.629 54.4908C115.989 54.36 114.358 54.2049 112.737 54.0265L112.519 56.0145ZM122.441 56.8049C124.096 56.8862 125.76 56.9427 127.433 56.9732L127.469 54.9735C125.818 54.9434 124.174 54.8876 122.539 54.8073L122.441 56.8049ZM132.403 56.987C134.057 56.966 135.718 56.9191 137.387 56.8456L137.299 54.8475C135.651 54.9201 134.011 54.9664 132.377 54.9872L132.403 56.987ZM142.365 56.5476C144.01 56.4231 145.661 56.2722 147.319 56.0941L147.105 54.1056C145.469 54.2814 143.838 54.4304 142.214 54.5533L142.365 56.5476ZM152.278 55.4816C153.91 55.2537 155.547 54.9991 157.19 54.7167L156.851 52.7456C155.229 53.0244 153.613 53.2758 152.002 53.5008L152.278 55.4816ZM162.089 53.7951C163.708 53.4641 165.332 53.1058 166.96 52.7194L166.498 50.7734C164.89 51.155 163.287 51.5088 161.688 51.8357L162.089 53.7951ZM171.778 51.497C173.379 51.0646 174.983 50.6046 176.591 50.1164L176.01 48.2027C174.422 48.6849 172.837 49.1392 171.257 49.5662L171.778 51.497ZM181.31 48.6054C182.878 48.0773 184.45 47.5219 186.024 46.9387L185.329 45.0633C183.773 45.6396 182.221 46.1883 180.672 46.71L181.31 48.6054ZM190.653 45.1457C192.183 44.5272 193.716 43.8818 195.251 43.2091L194.448 41.3773C192.931 42.0423 191.416 42.6801 189.903 43.2915L190.653 45.1457ZM199.777 41.1492C201.267 40.4456 202.758 39.716 204.251 38.9597L203.348 37.1755C201.871 37.9235 200.396 38.645 198.923 39.3407L199.777 41.1492ZM208.661 36.651C209.396 36.2532 210.132 35.8488 210.869 35.4377L209.894 33.6914C209.165 34.0981 208.437 34.4982 207.709 34.8918L208.661 36.651Z" fill="#96AE00"></path><path d="M217.954 38.5184L220.717 30.0754C220.817 29.8038 220.812 29.5468 220.704 29.3044C220.589 29.0477 220.402 28.8769 220.142 28.7919L212.475 26.2831C212.235 26.2047 211.993 26.235 211.749 26.3741C211.504 26.5132 211.339 26.7146 211.252 26.9785C211.159 27.2643 211.17 27.5356 211.285 27.7923C211.393 28.0347 211.574 28.1912 211.827 28.2619L218.596 30.4768L216.157 37.9304C216.064 38.2162 216.074 38.4875 216.189 38.7442C216.298 38.9866 216.479 39.1431 216.732 39.2138C216.978 39.3065 217.223 39.2833 217.468 39.1442C217.712 39.0051 217.874 38.7965 217.954 38.5184Z" fill="#96AE00"></path></svg>