<svg xmlns="http://www.w3.org/2000/svg" width="237" height="101" viewBox="0 0 237 101" fill="none"><path d="M1.63989 48.3755C1.15649 48.6426 0.548085 48.4672 0.280981 47.9838C0.0138759 47.5004 0.189216 46.892 0.672614 46.6249L1.63989 48.3755ZM212.374 66.3338C212.798 66.6871 212.856 67.3176 212.503 67.7421C212.15 68.1667 211.519 68.2245 211.094 67.8713L212.374 66.3338ZM2.9019 45.4236C3.39073 45.1665 3.99537 45.3544 4.2524 45.8433C4.50943 46.3321 4.32152 46.9367 3.83269 47.1938L2.9019 45.4236ZM8.36228 44.9212C7.86423 45.1599 7.267 44.9496 7.02831 44.4516C6.78963 43.9535 6.99988 43.3563 7.49792 43.1176L8.36228 44.9212ZM12.1653 40.9754C12.6709 40.7532 13.2609 40.9828 13.4832 41.4884C13.7055 41.9939 13.4759 42.584 12.9703 42.8063L12.1653 40.9754ZM17.6394 40.8366C17.1275 41.0438 16.5445 40.7967 16.3373 40.2848C16.1301 39.7728 16.3772 39.1898 16.8891 38.9827L17.6394 40.8366ZM21.6616 37.1283C22.1791 36.9354 22.755 37.1985 22.9479 37.7159C23.1409 38.2334 22.8778 38.8093 22.3603 39.0023L21.6616 37.1283ZM27.1277 37.2962C26.6053 37.4755 26.0365 37.1974 25.8572 36.675C25.6779 36.1527 25.956 35.5838 26.4784 35.4045L27.1277 37.2962ZM31.3368 33.8058C31.8635 33.6398 32.4251 33.9322 32.5911 34.4589C32.7572 34.9857 32.4647 35.5473 31.938 35.7133L31.3368 33.8058ZM36.7887 34.2502C36.258 34.4032 35.7038 34.097 35.5508 33.5663C35.3978 33.0356 35.704 32.4814 36.2347 32.3284L36.7887 34.2502ZM41.17 30.9703C41.7042 30.8302 42.2509 31.1497 42.3909 31.6839C42.531 32.2181 42.2115 32.7648 41.6773 32.9049L41.17 30.9703ZM46.6015 31.6765C46.0641 31.8037 45.5253 31.4712 45.398 30.9338C45.2708 30.3964 45.6033 29.8575 46.1407 29.7303L46.6015 31.6765ZM51.1445 28.6083C51.6848 28.4938 52.2156 28.8391 52.33 29.3794C52.4444 29.9197 52.0992 30.4505 51.5589 30.5649L51.1445 28.6083ZM56.53 29.5737C55.9871 29.6753 55.4647 29.3175 55.3632 28.7746C55.2616 28.2318 55.6194 27.7094 56.1622 27.6078L56.53 29.5737ZM61.1948 26.7281C61.7399 26.6394 62.2537 27.0095 62.3423 27.5546C62.4309 28.0998 62.0609 28.6135 61.5158 28.7022L61.1948 26.7281ZM66.5286 27.9485C65.9815 28.024 65.4768 27.6418 65.4012 27.0947C65.3256 26.5476 65.7079 26.0428 66.255 25.9673L66.5286 27.9485ZM71.3398 25.3272C71.8886 25.2648 72.384 25.6591 72.4463 26.2079C72.5087 26.7567 72.1144 27.2521 71.5656 27.3144L71.3398 25.3272ZM76.6153 26.8027C76.0651 26.8517 75.5795 26.4454 75.5305 25.8953C75.4815 25.3452 75.8878 24.8596 76.4379 24.8106L76.6153 26.8027ZM81.5316 24.4199C82.0827 24.3844 82.5582 24.8024 82.5937 25.3536C82.6292 25.9047 82.2111 26.3803 81.66 26.4157L81.5316 24.4199ZM86.7219 26.153C86.17 26.1748 85.705 25.745 85.6833 25.1932C85.6615 24.6413 86.0912 24.1763 86.6431 24.1546L86.7219 26.153ZM91.7691 24.0171C92.3213 24.0093 92.7753 24.4507 92.7831 25.0029C92.7909 25.5551 92.3496 26.0091 91.7974 26.0169L91.7691 24.0171ZM96.8624 26.0097C96.3101 26.0035 95.8675 25.5507 95.8738 24.9984C95.8801 24.4462 96.3328 24.0036 96.8851 24.0099L96.8624 26.0097ZM101.998 24.1339C102.55 24.1545 102.981 24.6186 102.96 25.1705C102.94 25.7224 102.476 26.1531 101.924 26.1326L101.998 24.1339ZM106.99 26.3877C106.439 26.3527 106.02 25.8775 106.055 25.3263C106.09 24.7751 106.566 24.3567 107.117 24.3918L106.99 26.3877ZM112.226 24.7848C112.776 24.8345 113.181 25.3207 113.132 25.8707C113.082 26.4207 112.596 26.8264 112.046 26.7767L112.226 24.7848ZM117.078 27.2995C116.529 27.235 116.137 26.7381 116.201 26.1896C116.266 25.6411 116.763 25.2487 117.311 25.3132L117.078 27.2995ZM122.392 25.9809C122.939 26.0603 123.317 26.5678 123.238 27.1143C123.158 27.6609 122.651 28.0395 122.104 27.9601L122.392 25.9809ZM127.112 28.7587C126.568 28.6642 126.204 28.1465 126.298 27.6023C126.393 27.0582 126.911 26.6937 127.455 26.7882L127.112 28.7587ZM132.479 27.7332C133.02 27.8429 133.37 28.3706 133.261 28.9119C133.151 29.4531 132.623 29.8031 132.082 29.6934L132.479 27.7332ZM137.036 30.7699C136.498 30.645 136.163 30.1076 136.288 29.5697C136.413 29.0317 136.951 28.6968 137.489 28.8217L137.036 30.7699ZM142.464 30.0514C142.998 30.1916 143.318 30.7382 143.178 31.2724C143.037 31.8066 142.491 32.1261 141.956 31.986L142.464 30.0514ZM146.829 33.3388C146.299 33.1835 145.995 32.6279 146.151 32.0979C146.306 31.5679 146.862 31.2642 147.392 31.4196L146.829 33.3388ZM152.294 32.9338C152.819 33.1044 153.107 33.6685 152.936 34.1938C152.765 34.7191 152.201 35.0066 151.676 34.836L152.294 32.9338ZM156.466 36.4684C155.946 36.2827 155.675 35.7105 155.86 35.1904C156.046 34.6703 156.618 34.3992 157.138 34.5849L156.466 36.4684ZM161.933 36.3755C162.448 36.5762 162.702 37.156 162.501 37.6705C162.301 38.185 161.721 38.4394 161.206 38.2388L161.933 36.3755ZM165.913 40.1542C165.405 39.9386 165.167 39.3516 165.383 38.8432C165.599 38.3347 166.186 38.0973 166.694 38.3129L165.913 40.1542ZM171.364 40.3729C171.866 40.6031 172.086 41.1967 171.856 41.6987C171.626 42.2008 171.032 42.4211 170.53 42.191L171.364 40.3729ZM175.108 44.3708C174.613 44.1262 174.41 43.5265 174.655 43.0313C174.899 42.5362 175.499 42.3331 175.994 42.5777L175.108 44.3708ZM180.553 44.9122C181.041 45.171 181.227 45.7763 180.968 46.2642C180.709 46.7521 180.104 46.9379 179.616 46.6792L180.553 44.9122ZM184.05 49.1123C183.57 48.8397 183.401 48.2293 183.674 47.749C183.946 47.2687 184.557 47.1002 185.037 47.3728L184.05 49.1123ZM189.472 49.9735C189.944 50.2596 190.095 50.8745 189.809 51.3469C189.523 51.8193 188.908 51.9703 188.436 51.6842L189.472 49.9735ZM192.713 54.3571C192.249 54.0579 192.115 53.4391 192.414 52.9749C192.713 52.5106 193.332 52.3768 193.796 52.676L192.713 54.3571ZM198.077 55.5198C198.532 55.8317 198.649 56.4541 198.337 56.9098C198.025 57.3655 197.403 57.4821 196.947 57.1701L198.077 55.5198ZM201.074 60.0789C200.627 59.7547 200.528 59.1294 200.852 58.6823C201.176 58.2352 201.801 58.1357 202.248 58.4599L201.074 60.0789ZM206.359 61.5265C206.797 61.8627 206.88 62.4905 206.544 62.9286C206.207 63.3668 205.58 63.4495 205.141 63.1134L206.359 61.5265ZM209.116 66.2474C208.687 65.8998 208.621 65.2701 208.969 64.8409C209.316 64.4118 209.946 64.3457 210.375 64.6933L209.116 66.2474ZM0.672614 46.6249C1.39512 46.2257 2.13839 45.825 2.9019 45.4236L3.83269 47.1938C3.0811 47.589 2.35 47.9831 1.63989 48.3755L0.672614 46.6249ZM7.49792 43.1176C8.99326 42.401 10.55 41.6857 12.1653 40.9754L12.9703 42.8063C11.3745 43.5079 9.83753 44.2142 8.36228 44.9212L7.49792 43.1176ZM16.8891 38.9827C18.4356 38.3568 20.0271 37.7378 21.6616 37.1283L22.3603 39.0023C20.743 39.6053 19.1687 40.2177 17.6394 40.8366L16.8891 38.9827ZM26.4784 35.4045C28.0634 34.8605 29.6834 34.3269 31.3368 33.8058L31.938 35.7133C30.3007 36.2293 28.6967 36.7577 27.1277 37.2962L26.4784 35.4045ZM36.2347 32.3284C37.852 31.8622 39.4976 31.4089 41.17 30.9703L41.6773 32.9049C40.0206 33.3393 38.3906 33.7884 36.7887 34.2502L36.2347 32.3284ZM46.1407 29.7303C47.7858 29.3407 49.4541 28.9662 51.1445 28.6083L51.5589 30.5649C49.8841 30.9195 48.2313 31.2906 46.6015 31.6765L46.1407 29.7303ZM56.1622 27.6078C57.8209 27.2975 59.4988 27.0038 61.1948 26.7281L61.5158 28.7022C59.8356 28.9753 58.1733 29.2663 56.53 29.5737L56.1622 27.6078ZM66.255 25.9673C67.9341 25.7353 69.6294 25.5215 71.3398 25.3272L71.5656 27.3144C69.8714 27.5069 68.1921 27.7187 66.5286 27.9485L66.255 25.9673ZM76.4379 24.8106C78.1227 24.6606 79.8209 24.5299 81.5316 24.4199L81.66 26.4157C79.9659 26.5248 78.284 26.6541 76.6153 26.8027L76.4379 24.8106ZM86.6431 24.1546C88.3409 24.0876 90.0498 24.0415 91.7691 24.0171L91.7974 26.0169C90.0952 26.041 88.4031 26.0867 86.7219 26.153L86.6431 24.1546ZM96.8851 24.0099C98.5807 24.0291 100.285 24.0702 101.998 24.1339L101.924 26.1326C100.228 26.0694 98.5409 26.0288 96.8624 26.0097L96.8851 24.0099ZM107.117 24.3918C108.813 24.4996 110.516 24.6303 112.226 24.7848L112.046 26.7767C110.354 26.6238 108.668 26.4945 106.99 26.3877L107.117 24.3918ZM117.311 25.3132C118.999 25.5117 120.693 25.734 122.392 25.9809L122.104 27.9601C120.424 27.7158 118.748 27.4959 117.078 27.2995L117.311 25.3132ZM127.455 26.7882C129.126 27.0785 130.801 27.3932 132.479 27.7332L132.082 29.6934C130.422 29.3571 128.765 29.0458 127.112 28.7587L127.455 26.7882ZM137.489 28.8217C139.145 29.2061 140.803 29.6157 142.464 30.0514L141.956 31.986C140.314 31.5551 138.674 31.15 137.036 30.7699L137.489 28.8217ZM147.392 31.4196C149.024 31.8983 150.659 32.4028 152.294 32.9338L151.676 34.836C150.059 34.311 148.443 33.8122 146.829 33.3388L147.392 31.4196ZM157.138 34.5849C158.737 35.1555 160.335 35.7521 161.933 36.3755L161.206 38.2388C159.626 37.6225 158.046 37.0326 156.466 36.4684L157.138 34.5849ZM166.694 38.3129C168.252 38.9733 169.808 39.6598 171.364 40.3729L170.53 42.191C168.992 41.4858 167.453 40.8071 165.913 40.1542L166.694 38.3129ZM175.994 42.5777C177.516 43.3294 179.036 44.1074 180.553 44.9122L179.616 46.6792C178.116 45.8833 176.613 45.1141 175.108 44.3708L175.994 42.5777ZM185.037 47.3728C186.518 48.2132 187.996 49.0799 189.472 49.9735L188.436 51.6842C186.977 50.8004 185.514 49.9433 184.05 49.1123L185.037 47.3728ZM193.796 52.676C195.226 53.5978 196.653 54.5455 198.077 55.5198L196.947 57.1701C195.539 56.2063 194.127 55.2688 192.713 54.3571L193.796 52.676ZM202.248 58.4599C203.623 59.4565 204.993 60.4786 206.359 61.5265L205.141 63.1134C203.79 62.0763 202.434 61.065 201.074 60.0789L202.248 58.4599ZM210.375 64.6933C211.043 65.2337 211.709 65.7806 212.374 66.3338L211.094 67.8713C210.436 67.3236 209.777 66.7823 209.116 66.2474L210.375 64.6933Z" fill="#96AE00"></path><path d="M221.05 64.0091L221.76 72.4645C221.794 72.7389 221.726 72.9775 221.554 73.1804C221.373 73.3952 221.139 73.5146 220.853 73.5387L212.397 74.2493C212.133 74.2715 211.893 74.1918 211.679 74.0103C211.464 73.8288 211.345 73.6059 211.323 73.3417C211.299 73.0554 211.378 72.8049 211.559 72.59C211.731 72.3872 211.955 72.2796 212.231 72.2675L219.695 71.6402L219.068 64.1756C219.044 63.8894 219.123 63.6388 219.304 63.424C219.476 63.2211 219.699 63.1136 219.976 63.1015C220.25 63.0673 220.494 63.141 220.709 63.3225C220.924 63.5041 221.038 63.7329 221.05 64.0091Z" fill="#96AE00"></path></svg>